[Header]
FileType HTR
DataType HTRS
FileVersion 1
NumSegments 64
NumFrames 3
DataFrameRate 24
EulerRotationOrder ZYX
CalibrationUnits mm
RotationUnits Degrees
GlobalAxisofGravity Y
BoneLengthAxis Y
ScaleFactor 1.0
[SegmentNames&Hierarchy]
Hips	GLOBAL
Spine	Hips
Spine1	Spine
Spine2	Spine1
Neck	Spine2
Head	Neck
LeftEye	Head
RightEye	Head
LeftShoulder	Spine2
LeftArm	LeftShoulder
LeftForeArm	LeftArm
LeftHand	LeftForeArm
LeftHandThumb1	LeftHand
LeftHandThumb2	LeftHandThumb1
LeftHandThumb3	LeftHandThumb2
LeftHandThumb4	LeftHandThumb3
LeftHandIndex1	LeftHand
LeftHandIndex2	LeftHandIndex1
LeftHandIndex3	LeftHandIndex2
LeftHandIndex4	LeftHandIndex3
LeftHandMiddle1	LeftHand
LeftHandMiddle2	LeftHandMiddle1
LeftHandMiddle3	LeftHandMiddle2
LeftHandMiddle4	LeftHandMiddle3
LeftHandRing1	LeftHand
LeftHandRing2	LeftHandRing1
LeftHandRing3	LeftHandRing2
LeftHandRing4	LeftHandRing3
LeftHandPinky1	LeftHand
LeftHandPinky2	LeftHandPinky1
LeftHandPinky3	LeftHandPinky2
LeftHandPinky4	LeftHandPinky3
RightShoulder	Spine2
RightArm	RightShoulder
RightForeArm	RightArm
RightHand	RightForeArm
RightHandPinky1	RightHand
RightHandPinky2	RightHandPinky1
RightHandPinky3	RightHandPinky2
RightHandPinky4	RightHandPinky3
RightHandRing1	RightHand
RightHandRing2	RightHandRing1
RightHandRing3	RightHandRing2
RightHandRing4	RightHandRing3
RightHandMiddle1	RightHand
RightHandMiddle2	RightHandMiddle1
RightHandMiddle3	RightHandMiddle2
RightHandMiddle4	RightHandMiddle3
RightHandIndex1	RightHand
RightHandIndex2	RightHandIndex1
RightHandIndex3	RightHandIndex2
RightHandIndex4	RightHandIndex3
RightHandThumb1	RightHand
RightHandThumb2	RightHandThumb1
RightHandThumb3	RightHandThumb2
RightHandThumb4	RightHandThumb3
LeftUpLeg	Hips
LeftLeg	LeftUpLeg
LeftFoot	LeftLeg
LeftToeBase	LeftFoot
RightUpLeg	Hips
RightLeg	RightUpLeg
RightFoot	RightLeg
RightToeBase	RightFoot
[BasePosition]
Hips	0	0	0	0	0	0	1
Spine	0	0	0	0	0	0	1
Spine1	0	0	0	0	0	0	1
Spine2	0	0	0	0	0	0	1
Neck	0	0	0	0	0	0	1
Head	0	0	0	0	0	0	1
LeftEye	0	0	0	0	0	0	1
RightEye	0	0	0	0	0	0	1
LeftShoulder	0	0	0	0	0	0	1
LeftArm	0	0	0	0	0	0	1
LeftForeArm	0	0	0	0	0	0	1
LeftHand	0	0	0	0	0	0	1
LeftHandThumb1	0	0	0	0	0	0	1
LeftHandThumb2	0	0	0	0	0	0	1
LeftHandThumb3	0	0	0	0	0	0	1
LeftHandThumb4	0	0	0	0	0	0	1
LeftHandIndex1	0	0	0	0	0	0	1
LeftHandIndex2	0	0	0	0	0	0	1
LeftHandIndex3	0	0	0	0	0	0	1
LeftHandIndex4	0	0	0	0	0	0	1
LeftHandMiddle1	0	0	0	0	0	0	1
LeftHandMiddle2	0	0	0	0	0	0	1
LeftHandMiddle3	0	0	0	0	0	0	1
LeftHandMiddle4	0	0	0	0	0	0	1
LeftHandRing1	0	0	0	0	0	0	1
LeftHandRing2	0	0	0	0	0	0	1
LeftHandRing3	0	0	0	0	0	0	1
LeftHandRing4	0	0	0	0	0	0	1
LeftHandPinky1	0	0	0	0	0	0	1
LeftHandPinky2	0	0	0	0	0	0	1
LeftHandPinky3	0	0	0	0	0	0	1
LeftHandPinky4	0	0	0	0	0	0	1
RightShoulder	0	0	0	0	0	0	1
RightArm	0	0	0	0	0	0	1
RightForeArm	0	0	0	0	0	0	1
RightHand	0	0	0	0	0	0	1
RightHandPinky1	0	0	0	0	0	0	1
RightHandPinky2	0	0	0	0	0	0	1
RightHandPinky3	0	0	0	0	0	0	1
RightHandPinky4	0	0	0	0	0	0	1
RightHandRing1	0	0	0	0	0	0	1
RightHandRing2	0	0	0	0	0	0	1
RightHandRing3	0	0	0	0	0	0	1
RightHandRing4	0	0	0	0	0	0	1
RightHandMiddle1	0	0	0	0	0	0	1
RightHandMiddle2	0	0	0	0	0	0	1
RightHandMiddle3	0	0	0	0	0	0	1
RightHandMiddle4	0	0	0	0	0	0	1
RightHandIndex1	0	0	0	0	0	0	1
RightHandIndex2	0	0	0	0	0	0	1
RightHandIndex3	0	0	0	0	0	0	1
RightHandIndex4	0	0	0	0	0	0	1
RightHandThumb1	0	0	0	0	0	0	1
RightHandThumb2	0	0	0	0	0	0	1
RightHandThumb3	0	0	0	0	0	0	1
RightHandThumb4	0	0	0	0	0	0	1
LeftUpLeg	0	0	0	0	0	0	1
LeftLeg	0	0	0	0	0	0	1
LeftFoot	0	0	0	0	0	0	1
LeftToeBase	0	0	0	0	0	0	1
RightUpLeg	0	0	0	0	0	0	1
RightLeg	0	0	0	0	0	0	1
RightFoot	0	0	0	0	0	0	1
RightToeBase	0	0	0	0	0	0	1
[Hips]
26	-13.89677048	991.7272339	14.34488106	10.4207716	-53.29295349	-11.17362404	1.0
27	-13.87207985	992.2796631	14.57457638	10.42968273	-53.31148911	-11.14239216	1.0
28	-13.65814304	992.4005737	14.74906445	10.47526073	-53.33233261	-11.1456356	1.0
[Spine]
26	9.234152094e-05	101.8158798	1.31520927	2.666332006	6.72994709	3.111364126	1.0
27	9.234152094e-05	101.8158798	1.31520927	2.647210121	6.73295784	3.088351965	1.0
28	9.234152094e-05	101.8158798	1.31520927	2.647913933	6.733575344	3.087700367	1.0
[Spine1]
26	2.519402869e-06	100.8345108	-10.00804329	2.544033527	7.897977829	-0.05682715401	1.0
27	2.519402869e-06	100.8345108	-10.00804329	2.537870169	7.896904945	-0.05183350295	1.0
28	2.519402869e-06	100.8345108	-10.00804329	2.541288376	7.894073486	-0.04477056861	1.0
[Spine2]
26	3.4574864e-06	91.00010681	-13.73417091	2.611515522	7.887880802	-0.2207873762	1.0
27	3.4574864e-06	91.00010681	-13.73417091	2.6064291	7.88565731	-0.2137256265	1.0
28	3.4574864e-06	91.00010681	-13.73417091	2.610285282	7.882421494	-0.2061484903	1.0
[Neck]
26	6.334285445e-06	166.7166901	-25.16167831	11.79262733	7.587489605	-2.902012825	1.0
27	6.334285445e-06	166.7166901	-25.16167831	11.82032394	7.5963974	-2.909263372	1.0
28	6.334285445e-06	166.7166901	-25.16167831	11.81571388	7.601792812	-2.917061806	1.0
[Head]
26	-4.242318937e-06	96.17874908	16.85007477	2.575362444	19.87018013	8.507354736	1.0
27	-4.242318937e-06	96.17874908	16.85007477	2.554794312	19.88681984	8.50114727	1.0
28	-4.242318937e-06	96.17874908	16.85007477	2.437530041	19.91955948	8.450157166	1.0
[LeftEye]
26	30.67560577	64.09507751	92.83554077	0	0	0	1.0
27	30.67560577	64.09507751	92.83554077	0	0	0	1.0
28	30.67560577	64.09507751	92.83554077	0	0	0	1.0
[RightEye]
26	-30.67550468	64.09500122	92.83547211	0	0	0	1.0
27	-30.67550468	64.09500122	92.83547211	0	0	0	1.0
28	-30.67550468	64.09500122	92.83547211	0	0	0	1.0
[LeftShoulder]
26	45.70446396	109.4598465	-26.27988052	2.483995199	5.444540501	-11.29504013	1.0
27	45.70446396	109.4598465	-26.27988052	2.4782691	5.452570438	-11.28269958	1.0
28	45.70446396	109.4598465	-26.27988052	2.490343094	5.437797546	-11.31147766	1.0
[LeftArm]
26	105.9236984	-5.245829105	-22.32120132	-28.07245636	-55.65402985	-18.41261292	1.0
27	105.9236984	-5.245829105	-22.32120132	-27.96380615	-55.67477417	-18.51767921	1.0
28	105.9236984	-5.245829105	-22.32120132	-28.01565552	-55.68871689	-18.40281677	1.0
[LeftForeArm]
26	278.4151917	-0.0008942864952	0.0003745891154	5.86017959e-05	-81.86405945	-0.00013178878	1.0
27	278.4151917	-0.0008942864952	0.0003745891154	8.48480413e-05	-81.85596466	-0.0001933670574	1.0
28	278.4151917	-0.0008942864952	0.0003745891154	2.795132059e-05	-81.85323334	-0.0001937226916	1.0
[LeftHand]
26	283.2883911	-0.0001744071778	0.0003780452244	-48.13995361	44.98260498	3.28008604	1.0
27	283.2883911	-0.0001744071778	0.0003780452244	-48.1047287	44.91295242	3.452433586	1.0
28	283.2883911	-0.0001744071778	0.0003780452244	-48.14745331	44.88308334	3.532055616	1.0
[LeftHandThumb1]
26	24.66140366	-15.7504921	26.82413483	-12.29798794	13.35949898	9.401165009	1.0
27	24.66140366	-15.7504921	26.82413483	-12.29798794	13.35949898	9.401165009	1.0
28	24.66140366	-15.7504921	26.82413483	-12.29798794	13.35949898	9.401165009	1.0
[LeftHandThumb2]
26	32.29803848	-18.6469059	18.64681244	-0.2483453304	-4.311873436	13.28869915	1.0
27	32.29803848	-18.6469059	18.64681244	-0.2483453304	-4.311873436	13.28869915	1.0
28	32.29803848	-18.6469059	18.64681244	-0.2483453304	-4.311873436	13.28869915	1.0
[LeftHandThumb3]
26	26.52565002	-15.31492996	15.31471634	-9.976514816	-23.52258492	0.1755283028	1.0
27	26.52565002	-15.31492996	15.31471634	-9.976514816	-23.52258492	0.1755283028	1.0
28	26.52565002	-15.31492996	15.31471634	-9.976514816	-23.52258492	0.1755283028	1.0
[LeftHandThumb4]
26	19.54566956	-11.2850008	11.28492165	0	0	0	1.0
27	19.54566956	-11.2850008	11.28492165	0	0	0	1.0
28	19.54566956	-11.2850008	11.28492165	0	0	0	1.0
[LeftHandIndex1]
26	91.09301758	-5.170834064	22.6007309	-2.034207106	1.761208534	-31.54689026	1.0
27	91.09301758	-5.170834064	22.6007309	-2.034207106	1.761208534	-31.54689026	1.0
28	91.09301758	-5.170834064	22.6007309	-2.034207106	1.761208534	-31.54689026	1.0
[LeftHandIndex2]
26	36.76409531	-6.939138257e-05	0.0002924251603	-3.082290649	5.140966415	-61.86808395	1.0
27	36.76409531	-6.939138257e-05	0.0002924251603	-3.082290649	5.140966415	-61.86808395	1.0
28	36.76409531	-6.939138257e-05	0.0002924251603	-3.082290649	5.140966415	-61.86808395	1.0
[LeftHandIndex3]
26	28.83062553	0.000385119667	-0.0004276481632	-0.5015913248	2.368166685	-23.91410255	1.0
27	28.83062553	0.000385119667	-0.0004276481632	-0.5015913248	2.368166685	-23.91410255	1.0
28	28.83062553	0.000385119667	-0.0004276481632	-0.5015913248	2.368166685	-23.91410255	1.0
[LeftHandIndex4]
26	23.92720032	0.0003702590766	0.0003355443478	0	0	0	1.0
27	23.92720032	0.0003702590766	0.0003355443478	0	0	0	1.0
28	23.92720032	0.0003702590766	0.0003355443478	0	0	0	1.0
[LeftHandMiddle1]
26	95.33401489	-0.000339240476	0.0001393702551	-2.959770441	-0.3316034675	-41.48937225	1.0
27	95.33401489	-0.000339240476	0.0001393702551	-2.959770441	-0.3316034675	-41.48937225	1.0
28	95.33401489	-0.000339240476	0.0001393702551	-2.959770441	-0.3316034675	-41.48937225	1.0
[LeftHandMiddle2]
26	36.98236847	1.961359158e-05	0.0001791696704	-2.939359903	5.06229353	-60.2610817	1.0
27	36.98236847	1.961359158e-05	0.0001791696704	-2.939359903	5.06229353	-60.2610817	1.0
28	36.98236847	1.961359158e-05	0.0001791696704	-2.939359903	5.06229353	-60.2610817	1.0
[LeftHandMiddle3]
26	29.50921631	-0.0003937608562	0.0001644795993	-1.315997601	3.691623449	-39.22911072	1.0
27	29.50921631	-0.0003937608562	0.0001644795993	-1.315997601	3.691623449	-39.22911072	1.0
28	29.50921631	-0.0003937608562	0.0001644795993	-1.315997601	3.691623449	-39.22911072	1.0
[LeftHandMiddle4]
26	28.3390255	-0.0003893481917	-9.504223272e-05	0	0	0	1.0
27	28.3390255	-0.0003893481917	-9.504223272e-05	0	0	0	1.0
28	28.3390255	-0.0003893481917	-9.504223272e-05	0	0	0	1.0
[LeftHandRing1]
26	91.04527283	-0.4393950403	-18.65084648	-3.775710106	-4.751326084	-49.6909523	1.0
27	91.04527283	-0.4393950403	-18.65084648	-3.775710106	-4.751326084	-49.6909523	1.0
28	91.04527283	-0.4393950403	-18.65084648	-3.775710106	-4.751326084	-49.6909523	1.0
[LeftHandRing2]
26	31.54026794	-6.55346812e-05	0.000104257444	-3.032872438	5.114353657	-61.31506729	1.0
27	31.54026794	-6.55346812e-05	0.000104257444	-3.032872438	5.114353657	-61.31506729	1.0
28	31.54026794	-6.55346812e-05	0.000104257444	-3.032872438	5.114353657	-61.31506729	1.0
[LeftHandRing3]
26	29.37672424	-0.0004545861739	-6.864757597e-05	-0.350160718	1.992284179	-19.93597984	1.0
27	29.37672424	-0.0004545861739	-6.864757597e-05	-0.350160718	1.992284179	-19.93597984	1.0
28	29.37672424	-0.0004545861739	-6.864757597e-05	-0.350160718	1.992284179	-19.93597984	1.0
[LeftHandRing4]
26	26.47452545	-0.0004980441299	7.070515267e-07	0	0	0	1.0
27	26.47452545	-0.0004980441299	7.070515267e-07	0	0	0	1.0
28	26.47452545	-0.0004980441299	7.070515267e-07	0	0	0	1.0
[LeftHandPinky1]
26	80.77777863	-4.886682034	-38.06066895	-2.494308233	-10.25931644	-37.81870651	1.0
27	80.77777863	-4.886682034	-38.06066895	-2.494308233	-10.25931644	-37.81870651	1.0
28	80.77777863	-4.886682034	-38.06066895	-2.494308233	-10.25931644	-37.81870651	1.0
[LeftHandPinky2]
26	36.00034332	-2.252215199e-05	-0.0002623879409	-2.836258411	5.002195358	-59.08558273	1.0
27	36.00034332	-2.252215199e-05	-0.0002623879409	-2.836258411	5.002195358	-59.08558273	1.0
28	36.00034332	-2.252215199e-05	-0.0002623879409	-2.836258411	5.002195358	-59.08558273	1.0
[LeftHandPinky3]
26	21.14211655	0.0001953828178	-2.864415183e-05	-0.872974813	3.07111001	-31.72867775	1.0
27	21.14211655	0.0001953828178	-2.864415183e-05	-0.872974813	3.07111001	-31.72867775	1.0
28	21.14211655	0.0001953828178	-2.864415183e-05	-0.872974813	3.07111001	-31.72867775	1.0
[LeftHandPinky4]
26	19.7568264	0.0001240565616	-0.0004430140834	0	0	0	1.0
27	19.7568264	0.0001240565616	-0.0004430140834	0	0	0	1.0
28	19.7568264	0.0001240565616	-0.0004430140834	0	0	0	1.0
[RightShoulder]
26	-45.69969559	109.4617615	-26.28017426	-14.91005039	0.635186851	-5.18179369	1.0
27	-45.69969559	109.4617615	-26.28017426	-14.91777897	0.588334024	-5.196388245	1.0
28	-45.69969559	109.4617615	-26.28017426	-14.92099762	0.5736173987	-5.189107418	1.0
[RightArm]
26	-105.9284363	-5.247983932	-22.32098579	-60.80627441	119.086853	-16.21681213	1.0
27	-105.9284363	-5.247983932	-22.32098579	-60.65666199	119.0726624	-16.20524597	1.0
28	-105.9284363	-5.247983932	-22.32098579	-60.56830215	119.0250092	-16.20984459	1.0
[RightForeArm]
26	-278.4151917	-0.0003307921579	0.0001167631053	2.179509465e-06	28.13267899	8.919148513e-07	1.0
27	-278.4151917	-0.0003307921579	0.0001167631053	-3.227200523e-06	28.14285088	8.874088962e-06	1.0
28	-278.4151917	-0.0003307921579	0.0001167631053	-3.258744243e-07	28.21295929	9.397191207e-06	1.0
[RightHand]
26	-283.2883911	-1.581417109e-06	0.000558160129	-43.50038147	-27.1672287	-16.93728447	1.0
27	-283.2883911	-1.581417109e-06	0.000558160129	-43.57257462	-27.11163139	-16.92211533	1.0
28	-283.2883911	-1.581417109e-06	0.000558160129	-43.57680893	-27.11571121	-16.92461395	1.0
[RightHandPinky1]
26	-80.76674652	-4.88459301	-38.06010437	-4.179559231	-3.048670053	59.07947159	1.0
27	-80.76674652	-4.88459301	-38.06010437	-4.179559231	-3.048670053	59.07947159	1.0
28	-80.76674652	-4.88459301	-38.06010437	-4.179559231	-3.048670053	59.07947159	1.0
[RightHandPinky2]
26	-36.00034332	0.0003967665543	0.0005081442068	-3.174546003	-4.396142006	71.67469025	1.0
27	-36.00034332	0.0003967665543	0.0005081442068	-3.174546003	-4.396142006	71.67469025	1.0
28	-36.00034332	0.0003967665543	0.0005081442068	-3.174546003	-4.396142006	71.67469025	1.0
[RightHandPinky3]
26	-21.14211655	0.0001513792522	0.0001479376951	-1.761317968	-3.635984421	51.6805954	1.0
27	-21.14211655	0.0001513792522	0.0001479376951	-1.761317968	-3.635984421	51.6805954	1.0
28	-21.14211655	0.0001513792522	0.0001479376951	-1.761317968	-3.635984421	51.6805954	1.0
[RightHandPinky4]
26	-19.7568264	-0.000185219571	-9.839841368e-06	0	0	0	1.0
27	-19.7568264	-0.000185219571	-9.839841368e-06	0	0	0	1.0
28	-19.7568264	-0.000185219571	-9.839841368e-06	0	0	0	1.0
[RightHandRing1]
26	-91.03588104	-0.4391434789	-18.65072441	-4.049632549	-6.933060169	57.63954544	1.0
27	-91.03588104	-0.4391434789	-18.65072441	-4.049632549	-6.933060169	57.63954544	1.0
28	-91.03588104	-0.4391434789	-18.65072441	-4.049632549	-6.933060169	57.63954544	1.0
[RightHandRing2]
26	-31.54026794	0.0002399729856	0.0004885121016	-5.297682285	-4.582300186	98.2931366	1.0
27	-31.54026794	0.0002399729856	0.0004885121016	-5.297682285	-4.582300186	98.2931366	1.0
28	-31.54026794	0.0002399729856	0.0004885121016	-5.297682285	-4.582300186	98.2931366	1.0
[RightHandRing3]
26	-29.37672424	-0.0004160065437	-0.0003966063377	-1.618076921	-3.518265247	49.38505554	1.0
27	-29.37672424	-0.0004160065437	-0.0003966063377	-1.618076921	-3.518265247	49.38505554	1.0
28	-29.37672424	-0.0004160065437	-0.0003966063377	-1.618076921	-3.518265247	49.38505554	1.0
[RightHandRing4]
26	-26.47452545	0.0002460821415	-2.294923434e-05	0	0	0	1.0
27	-26.47452545	0.0002460821415	-2.294923434e-05	0	0	0	1.0
28	-26.47452545	0.0002460821415	-2.294923434e-05	0	0	0	1.0
[RightHandMiddle1]
26	-95.32502747	-0.0001631230261	0.0001679184206	-3.53036809	-16.46828079	52.07723618	1.0
27	-95.32502747	-0.0001631230261	0.0001679184206	-3.53036809	-16.46828079	52.07723618	1.0
28	-95.32502747	-0.0001631230261	0.0001679184206	-3.53036809	-16.46828079	52.07723618	1.0
[RightHandMiddle2]
26	-36.98236847	0.000150669599	-0.0002254552383	-6.350979805	-4.299677372	111.8329315	1.0
27	-36.98236847	0.000150669599	-0.0002254552383	-6.350979805	-4.299677372	111.8329315	1.0
28	-36.98236847	0.000150669599	-0.0002254552383	-6.350979805	-4.299677372	111.8329315	1.0
[RightHandMiddle3]
26	-29.50921631	-3.113244929e-06	-3.03402544e-06	-0.2459617406	-1.492588997	18.73979759	1.0
27	-29.50921631	-3.113244929e-06	-3.03402544e-06	-0.2459617406	-1.492588997	18.73979759	1.0
28	-29.50921631	-3.113244929e-06	-3.03402544e-06	-0.2459617406	-1.492588997	18.73979759	1.0
[RightHandMiddle4]
26	-28.3390255	8.05324089e-05	0.0005378770875	0	0	0	1.0
27	-28.3390255	8.05324089e-05	0.0005378770875	0	0	0	1.0
28	-28.3390255	8.05324089e-05	0.0005378770875	0	0	0	1.0
[RightHandIndex1]
26	-91.08280945	-5.167889595	22.60116386	-1.387360573	-4.207729816	25.46813583	1.0
27	-91.08280945	-5.167889595	22.60116386	-1.387360573	-4.207729816	25.46813583	1.0
28	-91.08280945	-5.167889595	22.60116386	-1.387360573	-4.207729816	25.46813583	1.0
[RightHandIndex2]
26	-36.76409531	0.0001922715601	0.0003235567128	-1.643622756	-3.539990187	49.80016327	1.0
27	-36.76409531	0.0001922715601	0.0003235567128	-1.643622756	-3.539990187	49.80016327	1.0
28	-36.76409531	0.0001922715601	0.0003235567128	-1.643622756	-3.539990187	49.80016327	1.0
[RightHandIndex3]
26	-28.83062553	-0.0004960121587	0.0004044897505	-1.727792621	-3.609309912	51.15027237	1.0
27	-28.83062553	-0.0004960121587	0.0004044897505	-1.727792621	-3.609309912	51.15027237	1.0
28	-28.83062553	-0.0004960121587	0.0004044897505	-1.727792621	-3.609309912	51.15027237	1.0
[RightHandIndex4]
26	-23.92720032	0.0002681470069	0.0002802013478	0	0	0	1.0
27	-23.92720032	0.0002681470069	0.0002802013478	0	0	0	1.0
28	-23.92720032	0.0002681470069	0.0002802013478	0	0	0	1.0
[RightHandThumb1]
26	-24.64805984	-15.72714233	26.82626534	7.322416306	-6.350176334	10.24958611	1.0
27	-24.64805984	-15.72714233	26.82626534	7.322416306	-6.350176334	10.24958611	1.0
28	-24.64805984	-15.72714233	26.82626534	7.322416306	-6.350176334	10.24958611	1.0
[RightHandThumb2]
26	-32.29771805	-18.6470871	18.64718437	26.54580307	-9.159310341	-24.03568459	1.0
27	-32.29771805	-18.6470871	18.64718437	26.54580307	-9.159310341	-24.03568459	1.0
28	-32.29771805	-18.6470871	18.64718437	26.54580307	-9.159310341	-24.03568459	1.0
[RightHandThumb3]
26	-26.52605057	-15.31449318	15.31445599	31.8479023	-40.59857559	-44.24287415	1.0
27	-26.52605057	-15.31449318	15.31445599	31.8479023	-40.59857559	-44.24287415	1.0
28	-26.52605057	-15.31449318	15.31445599	31.8479023	-40.59857559	-44.24287415	1.0
[RightHandThumb4]
26	-19.54580498	-11.28461742	11.28507042	0	0	0	1.0
27	-19.54580498	-11.28461742	11.28507042	0	0	0	1.0
28	-19.54580498	-11.28461742	11.28507042	0	0	0	1.0
[LeftUpLeg]
26	82.07781982	-67.51714325	-15.99555588	-25.97805977	18.40131187	15.52928448	1.0
27	82.07781982	-67.51714325	-15.99555588	-25.88193512	18.32976341	15.49761963	1.0
28	82.07781982	-67.51714325	-15.99555588	-25.90145683	18.32266998	15.474617	1.0
[LeftLeg]
26	-4.110157988e-06	-443.7047119	2.846426487	25.22338867	9.003500938	4.792265892	1.0
27	-4.110157988e-06	-443.7047119	2.846426487	25.00628662	9.018548965	4.761425018	1.0
28	-4.110157988e-06	-443.7047119	2.846426487	24.96689606	9.025384903	4.749762535	1.0
[LeftFoot]
26	4.716393505e-06	-444.278717	-29.82190704	4.101742268	6.573589325	-8.288957596	1.0
27	4.716393505e-06	-444.278717	-29.82190704	4.175046921	6.680017471	-8.273839951	1.0
28	4.716393505e-06	-444.278717	-29.82190704	4.189479828	6.721467018	-8.263608932	1.0
[LeftToeBase]
26	-2.960988058e-05	-87.28669739	107.1055984	1.342095857e-07	-3.222650776e-06	-1.754975301e-06	1.0
27	-2.960988058e-05	-87.28669739	107.1055984	1.342095857e-07	-3.222650776e-06	-1.754975301e-06	1.0
28	-2.960988058e-05	-87.28669739	107.1055984	1.342095857e-07	-3.222650776e-06	-1.754975301e-06	1.0
[RightUpLeg]
26	-82.07795715	-67.51662445	-15.99559402	-11.37904739	-15.340065	-5.846612453	1.0
27	-82.07795715	-67.51662445	-15.99559402	-11.22448921	-15.30624866	-5.850941658	1.0
28	-82.07795715	-67.51662445	-15.99559402	-11.21913242	-15.28956795	-5.851857662	1.0
[RightLeg]
26	8.435572454e-07	-443.7053833	2.861563921	19.48169327	8.258936882	1.888423085	1.0
27	8.435572454e-07	-443.7053833	2.861563921	19.09653091	8.278539658	1.798771381	1.0
28	8.435572454e-07	-443.7053833	2.861563921	18.97018433	8.28282547	1.774710178	1.0
[RightFoot]
26	9.644581951e-06	-444.2773132	-29.83789063	-7.785215378	-9.18730545	13.75874996	1.0
27	9.644581951e-06	-444.2773132	-29.83789063	-7.63653326	-9.217618942	13.82976818	1.0
28	9.644581951e-06	-444.2773132	-29.83789063	-7.578558445	-9.215344429	13.85755825	1.0
[RightToeBase]
26	-2.360438157e-05	-87.28668976	107.1056061	-2.270344567e-06	3.233250936e-06	2.690227348e-06	1.0
27	-2.360438157e-05	-87.28668976	107.1056061	-2.270344567e-06	3.233250936e-06	2.690227348e-06	1.0
28	-2.360438157e-05	-87.28668976	107.1056061	-2.270344567e-06	3.233250936e-06	2.690227348e-06	1.0
[EndOfFile]
